<?xml version="1.0" encoding="UTF-8" standalone="no"?>
<svg
   width="2085"
   height="2085"
   viewBox="0 0 2085 2084.9999"
   fill="none"
   version="1.1"
   id="svg5"
   sodipodi:docname="lucy_0_degrees.svg"
   inkscape:version="1.3.2 (091e20ef0f, 2023-11-25)"
   inkscape:export-filename="lucy.png"
   inkscape:export-xdpi="4.8050933"
   inkscape:export-ydpi="4.8050933"
   xmlns:inkscape="http://www.inkscape.org/namespaces/inkscape"
   xmlns:sodipodi="http://sodipodi.sourceforge.net/DTD/sodipodi-0.dtd"
   xmlns="http://www.w3.org/2000/svg"
   xmlns:svg="http://www.w3.org/2000/svg">
  <defs
     id="defs5" />
  <sodipodi:namedview
     id="namedview5"
     pagecolor="#ffffff"
     bordercolor="#000000"
     borderopacity="0.25"
     inkscape:showpageshadow="2"
     inkscape:pageopacity="0.0"
     inkscape:pagecheckerboard="0"
     inkscape:deskcolor="#d1d1d1"
     inkscape:zoom="0.1767767"
     inkscape:cx="1196.4247"
     inkscape:cy="257.38687"
     inkscape:window-width="1916"
     inkscape:window-height="1021"
     inkscape:window-x="0"
     inkscape:window-y="0"
     inkscape:window-maximized="0"
     inkscape:current-layer="svg5" />
  <g
     id="g5"
     transform="rotate(10,1085.6692,717.65401)">
    <path
       d="M 842.026,129.177 C 870.114,49.5833 974.531,31.1719 1028.15,96.3575 L 1309.17,438.02 c 34.77,42.276 86.23,67.327 140.97,68.66 l 442.64,10.77 c 84.51,2.055 134.14,95.497 88.67,166.533 l -238.58,372.667 c -14.59,22.78 -24.1,48.44 -27.87,75.23 -3.78,26.78 -1.73,54.07 6,79.99 l 126.34,423.83 c 24.08,80.75 -49.46,157.01 -131.31,135.74 l -428.48,-111.33 c -26.19,-6.81 -53.54,-7.9 -80.19,-3.2 -26.64,4.69 -51.97,15.07 -74.25,30.43 l -364.553,251.17 c -69.644,47.97 -164.828,1.47 -169.831,-82.65 l -26.224,-441.48 c -3.245,-54.64 -30.129,-105.14 -73.636,-138.37 L 147.203,1007.41 C 80.1767,956.216 94.8588,851.43 173.566,820.594 L 585.833,659.08 c 50.98,-19.973 90.766,-61.113 108.98,-112.732 z"
       fill="#ffaff3"
       id="path1" />
    <path
       d="M 918.91,20.3875 C 868.969,29.1948 823.32,62.3526 804.42,115.904 L 657.186,533.07 c -14.355,40.671 -45.666,73.053 -85.859,88.801 L 159.044,783.395 C 53.2498,824.843 32.7918,970.356 122.981,1039.24 l 351.663,268.57 c 16.932,12.92 30.878,29.34 40.884,48.15 10.006,18.8 15.838,39.54 17.097,60.8 l 26.21,441.47 c 6.724,113.26 138.833,177.69 232.452,113.21 l 0.002,-0.01 364.581,-251.17 v -0.01 c 17.55,-12.1 37.51,-20.28 58.5,-23.98 21,-3.7 42.55,-2.84 63.18,2.53 v 0 l 428.49,111.31 c 110.02,28.59 212.13,-77.15 179.71,-185.89 v 0.01 l -126.33,-423.82 v 0 c -6.09,-20.41 -7.7,-41.89 -4.73,-62.99 2.97,-21.09 10.46,-41.29 21.96,-59.22 v -0.01 l 238.6,-372.677 -0.01,-0.002 c 61.2,-95.578 -7.78,-225.314 -121.37,-228.077 l -442.66,-10.753 c -43.15,-1.048 -83.65,-20.767 -111.04,-54.073 L 1059.15,70.9554 C 1023.08,27.1014 968.841,11.5585 918.896,20.3665 m 13.444,76.2469 c 22.695,-4.0023 47.479,3.8376 65.025,25.1656 l 281.015,341.643 c 42.14,51.241 104.57,81.62 170.88,83.233 l 442.66,10.753 c 55.43,1.346 85.71,58.488 55.94,104.974 l -238.59,372.678 c -35.79,55.87 -45.47,124.63 -26.53,188.2 l 126.34,423.81 c 15.73,52.78 -29.25,99.55 -82.93,85.61 v 0 l -428.49,-111.32 c -64.21,-16.69 -132.57,-4.63 -187.2,33.02 l -364.576,251.17 c -45.679,31.47 -103.939,2.9 -107.208,-52.07 l -26.207,-441.47 c -3.932,-66.23 -36.555,-127.51 -89.283,-167.79 L 171.524,975.65 C 127.662,942.151 136.58,878.1 188.203,857.867 L 600.485,696.341 c 61.771,-24.202 110.04,-74.101 132.123,-136.67 v -0.002 L 879.842,142.504 c 9.192,-26.041 29.798,-41.886 52.493,-45.8886"
       fill="#151515"
       id="path2" />
    <path
       d="m 790.631,1144.08 c 42.736,-7.54 71.273,-48.29 63.739,-91.02 -7.534,-42.74 -48.285,-71.267 -91.021,-63.731 -42.736,7.537 -71.273,48.291 -63.739,91.021 7.534,42.73 48.286,71.27 91.021,63.73 z"
       fill="#151515"
       id="path3" />
    <path
       d="m 1423.7,1032.45 c 42.73,-7.53 71.27,-48.286 63.73,-91.018 -7.53,-42.733 -48.28,-71.266 -91.02,-63.729 -42.73,7.536 -71.27,48.288 -63.74,91.021 7.54,42.736 48.29,71.266 91.03,63.726 z"
       fill="#151515"
       id="path4" />
    <path
       d="m 1042.09,1126.57 c -4.9,1.89 -9.38,4.73 -13.19,8.35 -3.8,3.62 -6.86,7.96 -8.98,12.76 -2.13,4.81 -3.29,9.98 -3.42,15.23 -0.13,5.25 0.78,10.48 2.67,15.38 4.94,12.77 12.34,24.45 21.79,34.37 v 0 c 9.45,9.92 20.76,17.87 33.29,23.41 l 0.01,0.01 c 12.51,5.54 25.99,8.56 39.68,8.89 h 0.01 0.02 c 13.68,0.32 27.29,-2.05 40.06,-6.98 h 0.01 c 12.77,-4.93 24.45,-12.33 34.36,-21.78 h 0.01 v -0.01 c 9.91,-9.44 17.86,-20.75 23.4,-33.26 5.56,-12.53 8.58,-26.04 8.9,-39.74 0.25,-10.6 -3.72,-20.87 -11.04,-28.55 -7.33,-7.67 -17.4,-12.12 -28.01,-12.37 -5.25,-0.13 -10.47,0.79 -15.37,2.68 -4.9,1.9 -9.38,4.74 -13.18,8.37 -3.8,3.62 -6.85,7.96 -8.97,12.77 -2.12,4.8 -3.28,9.98 -3.4,15.23 -0.08,3.17 -0.78,6.3 -2.07,9.2 v 0.01 l -0.01,0.02 c -1.29,2.91 -3.14,5.54 -5.44,7.74 -2.31,2.2 -5.02,3.92 -7.99,5.06 l -0.02,0.01 c -2.98,1.15 -6.15,1.7 -9.34,1.63 -3.18,-0.08 -6.32,-0.79 -9.23,-2.08 h -0.02 l -0.01,-0.01 c -2.91,-1.29 -5.53,-3.13 -7.73,-5.43 v -0.01 0 c -2.2,-2.31 -3.92,-5.02 -5.07,-8 -1.89,-4.9 -4.73,-9.38 -8.35,-13.18 -3.63,-3.8 -7.96,-6.86 -12.77,-8.98 -4.8,-2.13 -9.98,-3.29 -15.23,-3.42 -5.25,-0.13 -10.47,0.78 -15.37,2.68 z"
       fill="#151515"
       id="path5" />
  </g>
  <circle
     style="display:none;fill:#808080;fill-opacity:0.436319;stroke:none;stroke-width:39.6989"
     id="path6"
     cx="1042.5"
     cy="1042.5"
     r="1042.5" />
</svg>
